<?xml version="1.0" standalone="no"?>
<!DOCTYPE svg PUBLIC "-//W3C//DTD SVG 20010904//EN"
 "http://www.w3.org/TR/2001/REC-SVG-20010904/DTD/svg10.dtd">
<svg version="1.0" xmlns="http://www.w3.org/2000/svg"
 width="900.000000pt" height="900.000000pt" viewBox="0 0 900.000000 900.000000"
 preserveAspectRatio="xMidYMid meet">

<g transform="translate(0.000000,900.000000) scale(0.100000,-0.100000)"
fill="#000000" stroke="none">
<path d="M4160 7603 l-765 -3 -1547 -1548 -1548 -1547 0 -622 0 -623 1547 -2
1547 -3 0 -772 0 -773 773 0 773 0 0 1400 0 1400 -1546 0 -1546 0 1539 1541
c1288 1290 1580 1585 1541 1557 -1 -2 -347 -4 -768 -5z"/>
<path d="M5608 6830 c-2 -424 -3 -770 -3 -770 1 0 1529 1530 1534 1535 2 3
-341 5 -762 5 l-767 0 -2 -770z"/>
<path d="M7150 6827 l0 -772 -770 -770 -770 -770 0 -777 0 -778 770 0 770 0 0
773 0 772 775 775 775 775 0 772 0 773 -775 0 -775 0 0 -773z"/>
<path d="M7927 3739 c-422 -418 -767 -765 -767 -770 0 -5 312 -9 770 -9 l770
0 0 770 c0 424 -1 770 -3 770 -1 0 -348 -342 -770 -761z"/>
</g>
</svg>
