<svg xmlns="http://www.w3.org/2000/svg" viewBox="0 0 24 24"><g data-name="repeat circle"><path d="M12 0a12 12 0 1 0 12 12A12 12 0 0 0 12 0zm0 22a10 10 0 1 1 10-10 10 10 0 0 1-10 10z"/><path d="M18 10a1 1 0 0 0-1 1 5 5 0 0 1-5 5h-1.59l.3-.29a1 1 0 0 0-1.42-1.42c-2.08 2.09-2.1 2.06-2.21 2.33a1 1 0 0 0 .21 1.09C9.47 19.89 9.46 20 10 20a1 1 0 0 0 .71-1.71l-.3-.29H12c6.4 0 8.51-8 6-8zM12 8h1.59l-.3.29A1 1 0 0 0 14 10c.54 0 .56-.15 2.71-2.29a1 1 0 0 0 .21-1.09c-.1-.26-.05-.17-2.21-2.33a1 1 0 0 0-1.42 1.42l.3.29H12c-6.4 0-8.51 8-6 8a1 1 0 0 0 1-1 5 5 0 0 1 5-5z"/></g></svg>
